<?xml version="1.0" encoding="utf-8"?>
<!-- Generator: Adobe Illustrator 16.0.4, SVG Export Plug-In . SVG Version: 6.00 Build 0)  -->
<svg version="1.2" baseProfile="tiny" id="Layer_1" xmlns="http://www.w3.org/2000/svg" xmlns:xlink="http://www.w3.org/1999/xlink"
	 x="0px" y="0px" width="99.401px" height="15.162px" viewBox="0 0 99.401 15.162" xml:space="preserve">
<g>
	<path fill="#AFAFAF" d="M7.151,15.117c-3.893-0.047-7.263-3.279-7.148-7.582c0.114-3.483,2.504-6.739,6.033-7.308
		c2.254-0.342,4.963,0.318,6.511,2.026C12.911,2.687,12.365,3.165,12,2.778C10.612,1.229,8.176,0.66,6.149,0.979
		c-3.164,0.501-5.304,3.46-5.418,6.58c-0.091,3.803,2.937,6.738,6.442,6.807c1.981,0.023,4.075-0.842,5.214-2.504V8.059h-4.85
		c-0.432,0-0.432-0.683,0-0.683h5.123c0.319,0,0.41,0.182,0.41,0.433v4.052c0,0.182-0.022,0.387-0.159,0.523
		C11.568,14.16,9.337,15.139,7.151,15.117z"/>
	<path fill="#AFAFAF" d="M15.116,7.399c0.114-3.528,2.299-6.647,5.874-7.217c0.797-0.114,1.662-0.114,2.458,0
		c3.597,0.569,6.056,3.688,6.147,7.217c0.137,4.394-3.278,7.763-7.24,7.763C18.417,15.162,15.002,11.793,15.116,7.399z M15.89,7.422
		c-0.114,3.916,2.937,7.035,6.465,7.035c3.552,0,6.603-3.119,6.489-7.035c-0.091-3.187-2.277-6.01-5.51-6.511
		c-0.729-0.114-1.502-0.114-2.231,0C17.894,1.412,15.981,4.235,15.89,7.422z"/>
	<path fill="#AFAFAF" d="M32.096,14.889c-0.341,0-0.615-0.273-0.615-0.592V0.979c0-0.319,0.273-0.569,0.615-0.569
		c2.003,0,3.255,0,5.282,0c8.924,0,8.924,14.479,0,14.479C35.352,14.889,34.1,14.889,32.096,14.889z M32.233,14.184
		c1.958,0,3.165,0,5.145,0c7.923,0,7.923-13.091,0-13.091c-1.98,0-3.188,0-5.145,0V14.184z"/>
	<path fill="#AFAFAF" d="M46.8,1.002c0-0.319,0.25-0.592,0.569-0.592h9.949c0.479,0,0.501,0.683,0,0.683h-9.789v6.898h9.334
		c0.479,0,0.479,0.659,0,0.659h-9.334v6.012c0,0.5-0.729,0.5-0.729,0.021V1.002z"/>
	<path fill="#AFAFAF" d="M59.705,10.814l-2.026,4.029c-0.228,0.432-0.888,0.092-0.66-0.365l7.24-14.273
		C64.327,0.068,64.464,0,64.6,0c0.137,0,0.251,0.068,0.319,0.205l7.263,14.273c0.228,0.457-0.433,0.797-0.661,0.365l-2.025-4.029
		H59.705z M64.6,1.116l-4.553,9.015h9.084L64.6,1.116z"/>
	<path fill="#AFAFAF" d="M83.493,14.32c-5.145,2.596-10.95-1.207-10.768-6.898c0.091-3.848,2.55-6.67,6.124-7.24
		c2.686-0.341,4.826,0.091,6.784,2.186c0.341,0.41-0.205,0.82-0.547,0.456c-1.844-2.003-3.643-2.186-6.124-1.89
		c-3.21,0.501-5.418,2.823-5.509,6.511c-0.137,5.032,5.076,8.538,9.721,6.192c0.819-0.41,1.571-1.023,2.14-1.752
		c0.319-0.457,0.911,0,0.592,0.432C85.292,13.182,84.473,13.842,83.493,14.32z"/>
	<path fill="#AFAFAF" d="M88.977,14.16h10.062c0.479,0,0.479,0.729,0,0.729H88.84c-0.364,0-0.614-0.273-0.614-0.613V1.002
		c0-0.319,0.25-0.592,0.614-0.592h10.223c0.455,0,0.455,0.683-0.023,0.683H88.977v6.284h9.607c0.479,0,0.479,0.683,0,0.683h-9.607
		V14.16z"/>
</g>
</svg>
